<?xml version="1.0" encoding="UTF-8" standalone="no"?>
<!-- Created with Inkscape (http://www.inkscape.org/) -->

<svg
   xmlns:dc="http://purl.org/dc/elements/1.1/"
   xmlns:cc="http://creativecommons.org/ns#"
   xmlns:rdf="http://www.w3.org/1999/02/22-rdf-syntax-ns#"
   xmlns:svg="http://www.w3.org/2000/svg"
   xmlns="http://www.w3.org/2000/svg"
   xmlns:sodipodi="http://sodipodi.sourceforge.net/DTD/sodipodi-0.dtd"
   xmlns:inkscape="http://www.inkscape.org/namespaces/inkscape"
   version="1.1"
   id="svg4574"
   width="300"
   height="300"
   viewBox="0 0 300 300"
   sodipodi:docname="zwu_logo.svg"
   inkscape:version="0.92.2 5c3e80d, 2017-08-06">
  <metadata
     id="metadata4580">
    <rdf:RDF>
      <cc:Work
         rdf:about="">
        <dc:format>image/svg+xml</dc:format>
        <dc:type
           rdf:resource="http://purl.org/dc/dcmitype/StillImage" />
        <dc:title></dc:title>
      </cc:Work>
    </rdf:RDF>
  </metadata>
  <defs
     id="defs4578" />
  <sodipodi:namedview
     pagecolor="#ffffff"
     bordercolor="#666666"
     borderopacity="1"
     objecttolerance="10"
     gridtolerance="10"
     guidetolerance="10"
     inkscape:pageopacity="0"
     inkscape:pageshadow="2"
     inkscape:window-width="1716"
     inkscape:window-height="926"
     id="namedview4576"
     showgrid="false"
     inkscape:zoom="1.4142136"
     inkscape:cx="181.22674"
     inkscape:cy="151.47305"
     inkscape:window-x="218"
     inkscape:window-y="210"
     inkscape:window-maximized="0"
     inkscape:current-layer="g15" />
  <g
     id="g4620"
     transform="translate(29.853278,-35.001341)">
    <g
       id="g15"
       transform="translate(17.932437,31.926846)">
      <path
         inkscape:connector-curvature="0"
         id="path4626"
         d="m -3.5872957,294.48996 c -1.1,-0.49742 -3.173395,-0.93603 -4.607544,-0.97468 -2.4346163,-0.0656 -2.6611223,-0.48478 -3.4154433,-6.32029 -0.444344,-3.4375 -0.887638,-18.55468 -0.985098,-33.59373 -0.135071,-20.84308 -0.478556,-27.52998 -1.444801,-28.12715 -1.000578,-0.61839 -1.040983,-2.5472 -0.191807,-9.15627 3.100063,-24.12759 2.146256,-43.93724 -3.448537,-71.62285 -0.758098,-3.75142 0.741058,-4.38324 2.372735,-1 0.921422,1.91055 1.095345,1.38993 1.152815,-3.45078 0.03722,-3.13543 0.48722,-7.86043 0.999991,-10.5 0.512772,-2.63957 1.213402,-7.23809 1.556957,-10.21893 0.568954,-4.93652 0.479038,-5.29888 -1.008527,-4.06431 -2.124087,1.76284 -3.091525,0.31266 -4.346932,-6.51598 -0.505572,-2.75 -1.530004,-8.15 -2.276515,-11.999999 -1.439852,-7.42578 -1.61189,-37.34492 -0.34564,-60.110057 l 0.673589,-12.110058 12.6573793,-0.534794 c 8.055005,-0.340336 14.293632,-1.135491 17.1573777,-2.186823 6.415831,-2.355366 63.495287,-2.438757 75.499997,-0.110303 10.59587,2.055194 11.24503,2.032765 9.12024,-0.315102 -1.64115,-1.813452 -1.23587,-1.882933 14.095009,-2.416411 10.1407,-0.352871 19.89673,-1.349684 27.28475,-2.787792 8.96102,-1.744299 15.58445,-2.284159 30,-2.445229 10.175,-0.113689 21.2,-0.700136 24.5,-1.303217 11.97285,-2.188057 11.53436,-2.233908 17.45216,1.824852 7.50378,5.146508 14.19475,12.220684 14.81532,15.663832 0.28064,1.557107 0.70662,26.935409 0.94662,56.396222 0.39,47.874289 0.269,53.704009 -1.13887,54.872449 -2.19325,1.82023 -2.22094,29.19287 -0.041,40.56243 1.2667,6.60659 1.50663,16.75236 1.37753,58.25 -0.086,27.6375 -0.21379,50.27744 -0.28403,50.31098 -0.0702,0.0335 -15.4277,0.48809 -34.1277,1.01012 -18.7,0.52202 -36.8125,1.22367 -40.25,1.55921 -3.82229,0.3731 -6.25,0.23017 -6.25,-0.36797 0,-0.90103 6.24698,-2.03371 23,-4.17028 3.575,-0.45594 10.55,-1.90067 15.5,-3.21052 l 9,-2.38154 -19.78396,-0.27125 -19.78397,-0.27126 -7.09051,3.11205 c -5.54257,2.43265 -8.10032,3.01932 -11.71604,2.6873 -2.54404,-0.23361 -13.17552,0.89088 -23.62552,2.49888 -20.281029,3.12074 -33.864349,3.69079 -54.560006,2.28974 -10.05866,-0.68095 -11.77287,-0.56973 -13.19896,0.85637 -1.49799,1.49799 -2.58864,1.5146 -12.680196,0.19313 -7.461495,-0.97707 -12.90865,-1.17225 -16.801034,-0.60202 -3.1678897,0.4641 -7.5597997,1.09415 -9.7597997,1.40012 -2.20000002,0.30597 -4.9,0.14933 -6,-0.34809 z M 19.239169,153.42403 c 2.97082,-1.11152 6.073979,-2.79902 6.895909,-3.75 1.45546,-1.68396 4.065051,-8.22904 3.281008,-8.22904 -0.215919,0 -3.84869,1.575 -8.072825,3.5 -11.9245957,5.43421 -12.9457017,4.77094 -5.924494,-3.84833 3.778898,-4.63899 5.097764,-5.58169 8.1727,-5.84167 4.247547,-0.35911 5.908713,-2.81 1.90457,-2.81 -4.332352,0 -3.067645,-2.95161 4.927531,-11.5 4.11525,-4.4 7.483816,-8.26204 7.485706,-8.58232 0.002,-0.32027 -5.50907,0.23057 -12.24657,1.22409 -6.7375,0.99352 -14.3875,1.81807 -16.9999997,1.83232 -2.6125,0.0142 -4.748318,0.36341 -4.746262,0.77591 0.0021,0.4125 0.876327,2.18107 1.942825,3.93015 1.611988,2.6437 2.749997,3.28887 6.7462617,3.82465 7.963208,1.06763 8.032073,1.16851 3.77415,5.52902 -2.688394,2.75317 -4.72832,3.96618 -6.6699227,3.96618 -1.538378,0 -2.797052,0.45 -2.797052,1 0,0.55 0.675,1 1.5,1 0.825,0 1.5,0.32335 1.5,0.71855 0,1.51939 -10.51954202,11.28145 -12.156823,11.28145 -4.943974,0 -1.858991,6.62563 3.387413,7.27516 7.862526,0.97342 13.0166897,0.60425 18.0958747,-1.29612 z m 52.228252,-15.27895 c 4.14652,-10.07365 5.82502,-12.8488 4.86346,-8.04101 -0.34062,1.70312 -0.10823,4.05156 0.51644,5.21875 1.22368,2.28647 4.49971,2.84646 5.66087,0.96766 0.4108,-0.66469 0.27729,-0.8849 -0.31468,-0.51904 -0.62348,0.38533 -1.28312,-1.28623 -1.67584,-4.24669 -1.08827,-8.20376 -3.97874,-7.36629 -8.97195,2.59947 -1.42725,2.84858 -3.05355,5.46264 -3.614,5.80902 -1.435507,0.88719 -1.327897,0.45905 1.48098,-5.89233 2.9537,-6.67884 3.01358,-7.37094 0.84501,-9.76718 -3.865517,-4.27136 -7.382387,-0.70084 -8.946957,9.08344 -0.47638,2.97912 -1.63176,4.96385 -4.20474,7.22295 -4.88626,4.2902 -9.68775,6.2058 -12.19354,4.86475 -2.4934,-1.33443 -4.04269,-6.87553 -2.5873,-9.25362 1.00127,-1.63605 1.18261,-1.6088 2.70245,0.40609 2.14271,2.84065 4.5633,1.86202 6.42698,-2.59838 1.88056,-4.50082 0.53423,-7.64952 -4.18553,-9.78878 -3.46268,-1.5695 -3.49353,-1.56136 -6.86512,1.81023 -3.833023,3.83302 -5.320995,8.08862 -4.868741,13.92458 0.426891,5.50868 3.945741,8.5 9.999001,8.5 5.04982,0 7.60532,-1.05689 11.62849,-4.80928 l 2.75,-2.5649 v 2.68709 c 0,1.4779 0.93661,3.6237 2.08136,4.76845 1.93371,1.93371 2.20923,1.96564 3.88389,0.45009 0.991387,-0.8972 3.506657,-5.77131 5.589467,-10.83136 z m -26.554717,-5.0451 c 0,-1.55974 3.75513,-5.2332 4.54357,-4.44475 0.29222,0.29222 -0.008,1.71446 -0.66664,3.16053 -1.25021,2.74391 -3.87693,3.614 -3.87693,1.28422 z m 49.200557,14.59501 c 1.41612,-1.5125 2.86284,-3.70645 3.21495,-4.87545 0.51327,-1.70402 1.63773,-2.22129 5.671209,-2.60886 2.76705,-0.26588 5.56702,-1.04434 6.22214,-1.72991 0.94443,-0.98831 0.54459,-1.11049 -1.93051,-0.58987 -1.71691,0.36114 -4.30441,0.35977 -5.75,-0.003 -2.203779,-0.55317 -2.628349,-1.21821 -2.628349,-4.11706 0,-3.97684 -1.39539,-6.99215 -4.39682,-9.50118 -2.76288,-2.3096 -3.25653,-2.26223 -6.10452,0.58576 -2.0518,2.0518 -2.27597,2.87925 -1.50669,5.56158 0.71137,2.48038 0.48991,3.82984 -1.04038,6.33957 -2.17188,3.56196 -2.59798,10.64203 -0.75159,12.48842 2.08563,2.08563 6.27155,1.36477 9.00056,-1.55 z m -4.20056,-2.31574 c 0,-2.04823 2.08274,-4.93426 3.56086,-4.93426 1.30714,0 1.29965,0.36906 -0.0609,3 -1.52215,2.94351 -3.5,4.03656 -3.5,1.93426 z m 1.03647,-11.88304 c -2.45393,-3.44623 -2.37599,-6.82074 0.19477,-8.43214 2.65901,-1.66673 5.06921,1.37972 5.17841,6.54541 0.11498,5.43908 -2.25189,6.27018 -5.37318,1.88673 z"
         style="fill:#6adeaa" />
      <path
         sodipodi:nodetypes="ssccsccscsccccccscccccsccsscccssccsssssscsccccssscccsscssssscccscccccscsccccscscssccsscccsssssssssssscsscccssccsccsccsssscccssssssccccscccscscccssscccccscssccssscccscsscccccccssscscssss"
         inkscape:connector-curvature="0"
         id="path4624"
         d="m 34.2934,268.82567 c -1.762974,-7.02425 2.172253,-28.46001 7.745744,-42.19221 l 2.22477,-5.48148 2.3244,2.70227 c 2.81922,3.27754 2.89238,5.5876 0.42774,13.5065 -1.04316,3.35167 -1.55592,6.30453 -1.13948,6.56191 1.07367,0.66357 1.5645,0.007 4.54234,-6.07989 4.2705,-8.72858 9.49379,-9.52195 9.49379,-1.442 0,2.04099 0.23558,3.94646 0.5235,4.23439 1.19019,1.19018 5.69846,-0.60779 6.449997,-2.57236 0.44559,-1.1648 2.05366,-5.45693 3.5735,-9.53807 l 2.76334,-7.42027 2.34483,2.72603 c 2.84005,3.30175 2.91619,5.60052 0.44818,13.53026 -1.04316,3.35167 -1.55592,6.30453 -1.13948,6.56191 1.07367,0.66357 1.5645,0.007 4.54234,-6.07989 4.2705,-8.72858 9.49379,-9.52195 9.49379,-1.442 0,4.57333 0.42547,5.0305 3.81326,4.09743 2.38434,-0.65671 2.65267,-1.16003 2.38406,-4.47196 -0.58585,-7.22323 3.19118,-14.16357 6.302679,-11.58125 1.92649,1.59884 1.91285,5.30097 -0.0334,9.06459 -1.449119,2.80229 -1.388929,3.21181 1.09502,7.45034 1.44563,2.46679 2.83301,4.48507 3.08306,4.48507 1.80305,0 6.64951,-3.61795 10.27875,-7.67322 2.37583,-2.65473 5.45806,-6.09598 6.84939,-7.64723 1.99332,-2.22242 3.08071,-2.68554 5.12844,-2.18419 1.4293,0.34994 3.23408,1.25805 4.01061,2.01803 1.21192,1.18609 0.98913,1.77865 -1.57313,4.18419 -3.60504,3.38453 -6.82469,8.1498 -6.03796,8.93653 0.31443,0.31444 1.83789,-1.25615 3.38546,-3.49018 1.54757,-2.23404 3.26376,-3.92535 3.81376,-3.75848 0.55,0.16687 1,2.05144 1,4.18792 0,2.78666 0.45898,3.97499 1.62402,4.20463 2.5183,0.4964 7.49009,-5.19538 8.7107,-9.97214 1.5111,-5.9136 9.11335,-18.46891 14.09865,-23.28429 3.40259,-3.28662 4.41858,-3.78479 5.84272,-2.8649 3.32198,2.14576 1.1024,8.5346 -7.41519,21.34387 -3.21796,4.83936 -4.57538,8.0148 -5.01582,11.73362 -0.79053,6.67481 0.13266,10.26584 2.63918,10.26584 2.90545,0 8.815,-5.6746 12.25232,-11.7652 1.67128,-2.96135 4.54096,-6.97713 6.37706,-8.92397 2.80722,-2.97652 3.77882,-3.42915 6.10677,-2.84487 5.39932,1.35515 5.61667,2.44469 1.40021,7.01901 -2.1427,2.32455 -4.41908,5.30389 -5.05864,6.62074 -0.73715,1.51784 0.30528,0.80791 2.84772,-1.93938 4.65565,-5.03075 6.36729,-4.75073 5.46466,0.89403 -0.52916,3.30917 -0.35347,3.93964 1.09783,3.93964 0.9503,0 3.30281,-1.575 5.22781,-3.5 3.87838,-3.87838 4.3,-4.09283 4.3,-2.18709 0,0.7221 -1.34405,2.60059 -2.98678,4.17442 -2.15467,2.06431 -3.89589,2.82127 -6.25,2.71707 -1.79477,-0.0795 -4.38822,-0.19512 -5.76322,-0.25704 -1.375,-0.0619 -3.71445,0.19764 -5.19878,0.57681 -2.13398,0.54512 -3.1922,0.157 -5.05644,-1.85455 l -2.35765,-2.54395 -1.87006,3.47249 c -1.02854,1.90988 -3.80558,5.2566 -6.17122,7.43717 -3.3371,3.07603 -5.10137,3.96467 -7.87126,3.96467 -4.8896,0 -8.47459,-3.86903 -8.47459,-9.14602 0,-2.11969 -0.15586,-3.85398 -0.34636,-3.85398 -0.1905,0 -1.7892,0.71978 -3.55266,1.59951 -2.67678,1.33535 -3.70133,1.39446 -6.20383,0.35789 -2.41365,-0.99977 -3.47308,-0.98713 -5.43881,0.0649 -2.74022,1.46653 -7.06599,0.16374 -8.06035,-2.42752 -0.41252,-1.07501 -1.87149,-0.43119 -5.97193,2.63531 -4.49698,3.36304 -5.43302,4.58969 -5.4667,7.16389 -0.0573,4.37757 -4.82227,9.72653 -8.917189,10.01003 -1.73656,0.12023 -3.42599,-0.21602 -3.75429,-0.74721 -1.92204,-2.74994 -1.28788,-2.28106 -0.22104,-1.27737 2.44675,1.5402 6.93316,-3.83565 6.93316,-5.95615 0,-2.39901 -1.70898,-1.59968 -4.9272,2.30457 -1.69004,2.05032 -3.0728,3.24187 -3.0728,2.64789 0,-0.96486 1.25551,-2.89664 6.47279,-9.95934 2.047759,-2.77207 0.23172,-8.90388 -2.34197,-7.90761 -0.89695,0.3472 -2.8843,0.88421 -4.41634,1.19335 -1.53203,0.30914 -3.27451,1.51513 -3.87218,2.67997 -0.59767,1.16485 -2.22976,3.34379 -3.62686,4.8421 l -2.54018,2.7242 -2.20413,-2.98753 c -1.74104,-2.35985 -2.43112,-2.714 -3.28457,-1.68566 -1.82658,2.20088 -7.18656,14.79336 -7.18656,16.88374 0,4.63995 -4.026597,7.82006 -5.393007,4.25925 -1.32377,-3.44969 -0.14607,-18.99363 1.93612,-25.55404 0.53934,-1.6993 0.26241,-1.86068 -2.21332,-1.28979 -1.55638,0.3589 -3.27979,1.34593 -3.82979,2.19341 -0.55,0.84748 -2.29383,3.05749 -3.87519,4.91114 l -2.87519,3.37026 -2.2413,-3.03792 c -1.76952,-2.39844 -2.46875,-2.76388 -3.32176,-1.73606 -1.82658,2.20089 -7.18656,14.79337 -7.18656,16.88375 0,5.33392 -4.448981,7.88466 -5.619304,3.22172 z m 19.119304,-22.38068 c 0.33992,-0.55 0.16803,-1 -0.38197,-1 -0.55,0 -1.27811,0.45 -1.61803,1 -0.33992,0.55 -0.16803,1 0.38197,1 0.55,0 1.27811,-0.45 1.61803,-1 z m 28.999997,0 c 0.33992,-0.55 0.16803,-1 -0.38197,-1 -0.55,0 -1.27811,0.45 -1.61803,1 -0.33992,0.55 -0.16803,1 0.38197,1 0.55,0 1.27811,-0.45 1.61803,-1 z m -29.283117,-2.60733 c 1.82751,-0.64783 2.28815,-1.70154 3.34109,-7.64267 1.00266,-5.6574 -0.74931,-4.51937 -4.38134,2.846 -1.78895,3.6278 -2.67304,6.32809 -1.96463,6.00064 0.7084,-0.32744 2.0606,-0.86923 3.00488,-1.20397 z m 28.999997,0 c 1.82751,-0.64783 2.28815,-1.70154 3.34109,-7.64267 1.00266,-5.6574 -0.74931,-4.51937 -4.38134,2.846 -1.78895,3.6278 -2.67304,6.32809 -1.96463,6.00064 0.7084,-0.32744 2.0606,-0.86923 3.00488,-1.20397 z m 78.296519,-27.4224 c 2.05611,-4.55963 1.40978,-6.11572 -1.46107,-3.51763 -2.1459,1.94201 -8.05267,15.31394 -8.05177,18.22784 6.1e-4,1.96749 6.58037,-8.20715 9.51284,-14.71021 z M 19.397625,253.42059 c -0.348213,-0.56342 -0.339015,-2.36342 0.02044,-4 0.359451,-1.63658 0.278856,-2.9756 -0.179103,-2.9756 -0.457959,0 -3.047924,1.575 -5.755478,3.5 -3.8085557,2.70778 -5.9063987,3.5 -9.2682407,3.5 -6.294028,0 -7.17125,-2.39185 -4.85717202,-13.24365 2.66254302,-12.48592 6.69548102,-23.17001 8.90449702,-23.58987 3.2654637,-0.62065 8.4371047,0.83599 9.0998417,2.56305 0.353545,0.92133 -0.246023,4.17159 -1.332373,7.2228 -1.08635,3.05122 -2.87743,8.47267 -3.980178,12.04767 -1.102748,3.575 -2.3078767,7.2875 -2.6780637,8.25 -1.283595,3.33739 2.1390837,1.82203 7.9053197,-3.5 4.927373,-4.54779 6.354853,-6.7848 10.672444,-16.72484 5.632798,-12.96793 6.70008,-14.43992 9.650165,-13.3095 1.98201,0.75947 1.89953,1.14899 -2.601319,12.28434 -5.603809,13.86415 -7.891549,22.23138 -6.229869,22.78528 1.703402,0.5678 1.38531,2.68651 -0.684573,4.55973 -2.020142,1.82821 -7.691708,2.23994 -8.686338,0.63059 z M 112.4127,169.03335 c -6.98189,-3.10313 -10.5,-10.08202 -10.5,-20.82888 v -7.30476 l 4.5,-1.04405 4.5,-1.04405 v 8.67067 c 0,7.81768 0.24124,8.93097 2.45225,11.31669 2.45225,2.64602 1.55183,2.64602 4.67432,2.64602 h 2.22206 l -2.42432,-2.57956 -2.42431,-2.57957 -0.28325,-39.42043 c -0.27617,-38.435626 0.79262,-41.795437 -2.375,-41.920437 -3.28413,-0.129598 -1.84175,0.459662 -1.84175,32.313137 v 29.81314 l -4.5,0.23294 -4.5,0.23293 -0.0216,-29.79607 -0.0217,-29.796077 -3.223799,-1.5 c -4.19855,-1.953541 -5.70007,-5.178655 -5.71818,-12.282119 -0.0171,-6.727419 1.63938,-11.213181 5.4351,-14.717881 2.414829,-2.229682 3.726289,-2.537469 12.128869,-2.84653 l 9.42129,-0.346529 0.007,-4.153471 c 0.007,-4.502927 2.2642,-8.743034 6.09952,-11.458536 2.07143,-1.466623 5.82879,-1.732847 27.89389,-1.976392 22.84962,-0.252204 25.85639,-0.0963 28.92892,1.5 4.68402,2.433537 7.19268,6.18065 7.81109,11.667222 l 0.51968,4.614236 8.11995,0.0037 c 13.64021,0.0063 17.61995,4.029042 17.61995,17.810276 0,7.216665 -0.23209,8.145384 -2.63636,10.54966 -1.45,1.45 -3.475,2.636364 -4.5,2.636364 -1.78705,0 -1.86432,1.654259 -1.88009,40.249997 -0.0163,39.90299 -0.0359,40.28431 -2.27038,44.22962 -1.26377,2.23134 -4.00221,4.96978 -6.23355,6.23355 -3.94766,2.23583 -4.30083,2.25375 -43.97962,2.23124 -31.12741,-0.0177 -40.66544,-0.31845 -43,-1.35605 z M 106.10935,65.003738 c -0.22096,-1.89269 0.28491,-4.81769 1.12416,-6.5 1.48849,-2.983762 1.46686,-3.106844 -0.86227,-3.058745 -6.053,0.125 -4.45854,-1.591129 -4.45854,8.434259 0,4.097124 -1.76402,4.315741 2.2992,4.565741 2.02751,0.124747 2.1274,0.849095 1.89745,-3.441255 z M 132.9127,43.879252 c 0,-1.411158 0.46583,-3.436158 1.03518,-4.5 0.84867,-1.585739 0.70452,-1.934259 -0.8,-1.934259 -2.74342,0 -4.23518,2.007711 -4.23518,5.7 0,3.3 -1.59596,3.05 2,3.3 1.47677,0.102668 2,-0.666667 2,-2.565741 z"
         style="fill:#e4843e" />
      <path
         sodipodi:nodetypes="ccscsscccccscccscscscccssscscssssccccscccsccssscscsccscccccscsccscssccsscsssccssssccccccscccsscccccccccccccccscssccssscccscsscccccscsscccssscscccscscssscccccccccccssscsssccccccccccsccscccccccscscc"
         inkscape:connector-curvature="0"
         id="path4622"
         d="m 58.200584,211.10178 c -2.803164,-3.31542 -0.781303,-1.59815 0.46646,-0.30862 1.228,0.75895 6.24566,-4.8044 6.24566,-6.9249 0,-2.39901 -1.70898,-1.59968 -4.9272,2.30457 -1.69004,2.05032 -3.0728,3.24187 -3.0728,2.64789 0,-0.96486 1.25551,-2.89664 6.47279,-9.95934 1.23899,-1.67724 1.3239,-2.70115 0.43537,-5.25 -1.31,-3.75785 -1.58623,-3.81746 -4.59444,-0.99139 -1.50354,1.4125 -3.45431,2.12417 -5.56446,2.02998 -1.78709,-0.0798 -4.37426,-0.1957 -5.74926,-0.25762 -1.375,-0.0619 -3.69346,0.19362 -5.15213,0.56789 -3.23047,0.82888 -6.84787,-2.27273 -6.84787,-5.87145 0,-2.84272 6.20537,-11.25682 8.94257,-12.12557 1.07661,-0.3417 3.38459,0.11671 5.12885,1.0187 l 3.17137,1.63998 -4.0046,4.16155 c -2.20253,2.28885 -4.52985,5.28654 -5.17182,6.66154 -0.82372,1.76431 0.013,1.2247 2.84333,-1.83367 4.65565,-5.03075 6.36729,-4.75073 5.46466,0.89403 -0.77335,4.83624 0.92502,5.2415 5.57365,1.32994 2.67857,-2.25387 3.0164,-3.06309 2.47766,-5.93483 -0.69788,-3.71998 0.91851,-9.6663 3.12548,-11.49792 1.13084,-0.93852 1.77808,-0.9292 2.94885,0.0425 1.934527,1.60552 1.910907,5.30471 -0.0582,9.11252 -1.47946,2.86094 -1.4268,3.2374 1.042147,7.45034 1.43019,2.44043 2.82872,4.43714 3.10784,4.43714 1.35524,0 6.14345,-3.06816 8.04492,-5.15499 1.17521,-1.28975 2.90149,-5.02269 3.83619,-8.2954 1.54865,-5.42236 1.5587,-6.05332 0.11327,-7.11024 -2.24737,-1.64338 -1.96953,-2.43942 0.85142,-2.43942 1.89425,0 3.04168,-1.10992 5.14778,-4.97952 4.12711,-7.58286 8.41463,-8.07275 8.41463,-0.96146 0,3.94069 2.9e-4,3.94098 4.059019,3.94098 5.15141,0 4.31284,1.564 -1.296719,2.41849 -4.24222,0.6462 -4.27871,0.68797 -7.74521,8.86539 -2.66212,6.27987 -3.48694,9.63011 -3.5,14.21612 -0.0152,5.33054 0.21608,6.03331 2.07268,6.29855 2.57576,0.36799 9.0736,-6.48009 9.985129,-10.52334 1.92365,-8.53265 2.8146,-10.59805 5.90459,-13.68804 3.38417,-3.38416 3.4133,-3.39188 6.87688,-1.82198 4.71976,2.13926 6.06609,5.28796 4.18553,9.78878 -1.86368,4.4604 -4.28427,5.43903 -6.42698,2.59838 -1.51984,-2.01489 -1.70118,-2.04214 -2.70245,-0.40609 -1.45539,2.37809 0.0939,7.91919 2.5873,9.25362 2.65202,1.41931 7.55803,-0.70559 13.05106,-5.65271 3.54263,-3.19055 4.05217,-3.42048 2.98547,-1.34717 -3.39573,6.60017 -8.68708,10 -15.56356,10 -3.78167,0 -5.16112,-0.53453 -7.55356,-2.92697 -2.87715,-2.87716 -2.94585,-2.89172 -4.035479,-0.85572 -0.60968,1.1392 -2.91524,4.03133 -5.12346,6.42698 -3.21359,3.48633 -4.68813,4.35571 -7.3876,4.35571 -5.16843,0 -7.64862,-3.10934 -8.59269,-10.77241 l -0.27995,-2.27241 -3.75,2.55846 c -2.99908,2.04614 -3.75814,3.20204 -3.79064,5.77241 -0.0567,4.48764 -4.765557,9.83053 -8.917187,10.11795 -1.73656,0.12023 -3.42599,-0.21602 -3.75429,-0.74721 z m 56.589046,-28.28602 c 0.65887,-1.44607 0.95886,-2.86831 0.66664,-3.16053 -0.78844,-0.78845 -4.54357,2.88501 -4.54357,4.44475 0,2.32978 2.62672,1.45969 3.87693,-1.28422 z m -23.488519,-5.69783 c 1.10304,-2.68207 1.21216,-3.70646 0.36473,-3.42399 -0.66506,0.22169 -1.77806,2.36783 -2.47332,4.76921 -1.46445,5.05809 -0.19065,4.24544 2.10859,-1.34522 z m 3.16459,-11.70419 c 0.55795,-3.27756 0.50387,-3.36176 -0.98125,-1.52762 -0.86446,1.06762 -1.57175,3.07012 -1.57175,4.45 0,3.51748 1.80928,1.44642 2.553,-2.92238 z M 1.3699263,198.02005 c -1.29172402,-1.97142 -1.58515302,-3.84707 -1.16147502,-7.42437 0.637441,-5.38219 5.18106202,-17.47159 7.19444302,-19.14255 1.645605,-1.36573 6.4803427,-0.2485 7.2155397,1.66739 0.299312,0.77999 -0.905465,5.16789 -2.677281,9.75088 -4.6140527,11.93474 -3.6302347,13.92572 2.331353,4.71803 5.819292,-8.98792 6.24882,-8.88282 6.561759,1.60556 l 0.171562,5.75 2.515487,-4.83438 c 1.383518,-2.6589 3.331109,-8.0589 4.327981,-12 1.747796,-6.90984 1.852667,-7.06513 2.937951,-4.35052 0.619002,1.5483 1.125458,3.89033 1.125458,5.20451 0,3.2014 -4.478001,15.38696 -6.337979,17.24694 -2.201909,2.20191 -6.753221,1.83905 -8.811235,-0.70249 l -1.770071,-2.18595 -2.790357,3.06343 c -1.534697,1.68488 -4.2110997,3.33521 -5.9475617,3.66738 -2.655612,0.50801 -3.431795,0.18488 -4.885574,-2.03386 z M 112.4127,169.03335 c -6.98189,-3.10313 -10.5,-10.08202 -10.5,-20.82888 v -7.30476 l 4.5,-1.04405 4.5,-1.04405 v 8.67067 c 0,7.81768 0.24124,8.93097 2.45225,11.31669 l 2.45225,2.64602 h 39.37344 39.37343 l 2.42432,-2.57965 2.42431,-2.57964 V 117.11534 77.944993 l -44.25,-0.260402 -44.25,-0.260402 v 29.823541 29.82354 l -4.5,0.23294 -4.5,0.23293 -0.0216,-29.79607 -0.0217,-29.796077 -3.223799,-1.5 c -4.19855,-1.953541 -5.70007,-5.178655 -5.71818,-12.282119 -0.0171,-6.727419 1.63938,-11.213181 5.4351,-14.717881 2.414829,-2.229682 3.726289,-2.537469 12.128869,-2.84653 l 9.42129,-0.346529 0.007,-4.153471 c 0.007,-4.502927 2.2642,-8.743034 6.09952,-11.458536 2.07143,-1.466623 5.82879,-1.732847 27.89389,-1.976392 22.84962,-0.252204 25.85639,-0.0963 28.92892,1.5 4.68402,2.433537 7.19268,6.18065 7.81109,11.667222 l 0.51968,4.614236 8.11995,0.0037 c 13.64021,0.0063 17.61995,4.029042 17.61995,17.810276 0,7.216665 -0.23209,8.145384 -2.63636,10.54966 -1.45,1.45 -3.475,2.636364 -4.5,2.636364 -1.78705,0 -1.86432,1.654259 -1.88009,40.249997 -0.0163,39.90299 -0.0359,40.28431 -2.27038,44.22962 -1.26377,2.23134 -4.00221,4.96978 -6.23355,6.23355 -3.94766,2.23583 -4.30083,2.25375 -43.97962,2.23124 -31.12741,-0.0177 -40.66544,-0.31845 -43,-1.35605 z m 95.5,-105.888357 c 0,-2.915 -0.54,-5.84 -1.2,-6.5 -0.90182,-0.901815 -13.8144,-1.2 -51.96482,-1.2 -57.554059,0 -52.83518,-0.75329 -52.83518,8.434259 v 4.565741 h 53 53 z m -26,-19.628571 c 0,-5.957463 -0.78252,-6.133473 -26.82312,-6.033264 -15.01005,0.05776 -24.0924,0.476761 -24.90219,1.148824 -0.70108,0.581845 -1.27469,2.5778 -1.27469,4.435456 v 3.377555 h 26.5 26.5 z m -60.25,108.848468 c -1.60759,-0.93633 -1.75,-3.56235 -1.75,-32.26959 0,-22.972459 0.31787,-31.568179 1.2,-32.450309 1.82842,-1.82841 13.30873,-1.54841 15.22857,0.37143 1.35856,1.35856 1.57143,5.62554 1.57143,31.499999 0,28.59524 -0.0891,30.01767 -2,31.92857 -1.50267,1.50267 -3.3055,1.99244 -7.25,1.96959 -2.8875,-0.0167 -6.0375,-0.48908 -7,-1.04969 z m 11.01534,-32.6699 -0.26534,-28.749999 h -4 -4 l -0.26534,28.749999 -0.26533,28.75 h 4.53067 4.53067 z m 15.23466,31.75 c -1.9109,-1.9109 -2,-3.33333 -2,-31.92857 0,-25.874459 0.21287,-30.141439 1.57143,-31.499999 1.91984,-1.91984 13.40015,-2.19984 15.22857,-0.37143 0.88126,0.88126 1.2,9.3619 1.2,31.928569 0,35.3237 0.36751,33.87143 -8.57143,33.87143 -4.09524,0 -5.9198,-0.49123 -7.42857,-2 z m 11.76534,-31.75 -0.26534,-28.749999 -4.25,-0.3075 -4.25,-0.3075 v 29.057499 29.0575 h 4.51534 4.51533 z m 14.80609,32.17857 c -1.36039,-1.36038 -1.57143,-5.69827 -1.57143,-32.3 0,-22.566669 0.31874,-31.047309 1.2,-31.928569 1.82842,-1.82841 13.30873,-1.54841 15.22857,0.37143 1.35959,1.35958 1.57143,5.66584 1.57143,31.943289 0,30.25181 -0.009,30.37803 -2.22251,31.92858 -2.98552,2.09114 -12.10965,2.08168 -14.20606,-0.0147 z M 185.9127,119.38749 V 90.329991 l -4.25,0.3075 -4.25,0.3075 -0.2665,27.485809 c -0.14658,15.11719 -0.0482,28.05469 0.21861,28.75 0.27999,0.72964 2.18975,1.26419 4.51651,1.26419 h 4.03138 z"
         style="fill:#646564" />
    </g>
  </g>
  <g
     id="g4602"
     transform="translate(243.5699,-95.60277)" />
</svg>
